<svg version="1.1" viewBox="0.0 0.0 960.0 720.0" fill="none" stroke="none" stroke-linecap="square" stroke-miterlimit="10" xmlns:xlink="http://www.w3.org/1999/xlink" xmlns="http://www.w3.org/2000/svg"><clipPath id="p.0"><path d="m0 0l960.0 0l0 720.0l-960.0 0l0 -720.0z" clip-rule="nonzero"/></clipPath><g clip-path="url(#p.0)"><path fill="#000000" fill-opacity="0.0" d="m0 0l960.0 0l0 720.0l-960.0 0z" fill-rule="evenodd"/><path fill="#6e6e6e" d="m441.7454 115.37533l0 0c0 -20.386703 17.126007 -36.913383 38.251984 -36.913383l0 0c10.14505 0 19.874603 3.8890762 27.048218 10.811676c7.173645 6.9226074 11.203735 16.311668 11.203735 26.101707l0 0c0 20.386696 -17.125977 36.913383 -38.251953 36.913383l0 0c-21.125977 0 -38.251984 -16.526688 -38.251984 -36.913383z" fill-rule="evenodd"/><path fill="#6e6e6e" d="m390.87665 137.5433l89.47507 124.561676l89.47244 -124.20996l-4.209961 -13.685043l-18.595825 -0.34908295l-67.01837 48.068245l-67.01837 -47.015755l-18.24411 0.34908295z" fill-rule="evenodd"/><path fill="#6e6e6e" d="m635.6427 155.90868l0 0c14.950867 -13.846252 38.711487 -12.506638 53.07086 2.9921265l0 0c6.89563 7.4427643 10.656738 17.222092 10.455933 27.186615c-0.20080566 9.964539 -4.347168 19.298035 -11.526794 25.94725l0 0c-14.950806 13.846252 -38.711426 12.506622 -53.07086 -2.9921265l0 0c-14.359375 -15.498764 -13.879944 -39.287613 1.0708618 -53.133865z" fill-rule="evenodd"/><path fill="#6e6e6e" d="m584.8015 133.6594l-30.601501 150.27505l151.92041 -18.74231l7.180481 -12.386475l-12.377869 -13.880905l-80.79999 -16.513824l-11.036804 -81.11388l-12.651184 -13.148529z" fill-rule="evenodd"/><path fill="#6e6e6e" d="m729.71783 316.05118l0 0c20.386719 0 36.91339 17.126007 36.91339 38.251984l0 0c0 10.14505 -3.8890991 19.874573 -10.8116455 27.048218c-6.9226074 7.173645 -16.311707 11.203735 -26.101746 11.203735l0 0c-20.386658 0 -36.91339 -17.125977 -36.91339 -38.251953l0 0c0 -21.125977 16.526733 -38.251984 36.91339 -38.251984z" fill-rule="evenodd"/><path fill="#6e6e6e" d="m707.54987 265.1824l-124.56171 89.47507l124.21002 89.47244l13.684998 -4.209961l0.3491211 -18.595795l-48.068237 -67.01837l47.015747 -67.01837l-0.3491211 -18.24411z" fill-rule="evenodd"/><path fill="#6e6e6e" d="m227.43701 315.69815l0 0c-20.386703 0 -36.91339 17.126007 -36.91339 38.251984l0 0c0 10.14505 3.8890839 19.874573 10.811676 27.048218c6.9226074 7.173645 16.311676 11.203735 26.101715 11.203735l0 0c20.386703 0 36.91339 -17.125977 36.91339 -38.251953l0 0c0 -21.125977 -16.526688 -38.251984 -36.91339 -38.251984z" fill-rule="evenodd"/><path fill="#6e6e6e" d="m249.60498 264.8294l124.561676 89.47507l-124.20996 89.47244l-13.685043 -4.2099915l-0.34907532 -18.595795l48.068237 -67.01837l-47.015747 -67.01837l0.34907532 -18.24411z" fill-rule="evenodd"/><path fill="#6e6e6e" d="m327.10904 155.90868l0 0c-14.950806 -13.846252 -38.711456 -12.506638 -53.07086 2.9921265l0 0c-6.89563 7.4427643 -10.656738 17.222092 -10.455902 27.186615c0.20083618 9.964539 4.3471375 19.298035 11.526764 25.94725l0 0c14.950836 13.846252 38.711456 12.506622 53.07086 -2.9921265l0 0c14.3594055 -15.498764 13.879974 -39.287613 -1.0708618 -53.133865z" fill-rule="evenodd"/><path fill="#6e6e6e" d="m377.95023 133.6594l30.601562 150.27505l-151.92044 -18.74231l-7.1804657 -12.386475l12.377884 -13.880905l80.79993 -16.513824l11.036835 -81.11388l12.651154 -13.148529z" fill-rule="evenodd"/><path fill="#6e6e6e" d="m440.72046 594.2051l0 0c0 20.386658 17.126007 36.91339 38.251984 36.91339l0 0c10.14505 0 19.874603 -3.8890991 27.048218 -10.811707c7.1736145 -6.9226074 11.203766 -16.311646 11.203766 -26.101685l0 0c0 -20.386719 -17.126007 -36.91339 -38.251984 -36.91339l0 0c-21.125977 0 -38.251984 16.526672 -38.251984 36.91339z" fill-rule="evenodd"/><path fill="#6e6e6e" d="m389.8517 572.0371l89.47507 -124.56171l89.47241 124.20996l-4.209961 13.685059l-18.595825 0.34906006l-67.01834 -48.068237l-67.01837 47.015747l-18.24411 -0.34906006z" fill-rule="evenodd"/><path fill="#6e6e6e" d="m634.6178 553.6717l0 0c14.950806 13.846252 38.711426 12.506653 53.07086 -2.9921265l0 0c6.89563 -7.442749 10.656738 -17.222046 10.455872 -27.186584c-0.20080566 -9.964539 -4.347107 -19.298035 -11.526733 -25.947266l0 0c-14.950867 -13.846252 -38.711487 -12.506622 -53.07086 2.9921265l0 0c-14.359436 15.498779 -13.880005 39.287598 1.0708618 53.13385z" fill-rule="evenodd"/><path fill="#6e6e6e" d="m583.7766 575.921l-30.601562 -150.27509l151.92041 18.74231l7.180481 12.386475l-12.377869 13.88092l-80.79993 16.513824l-11.036865 81.11386l-12.651123 13.14856z" fill-rule="evenodd"/><path fill="#6e6e6e" d="m326.0841 553.6717l0 0c-14.950836 13.846252 -38.711456 12.506653 -53.07086 -2.9921265l0 0c-6.89563 -7.442749 -10.656738 -17.222046 -10.455902 -27.186584c0.20083618 -9.964539 4.3471375 -19.298035 11.526764 -25.947266l0 0c14.950836 -13.846252 38.711456 -12.506622 53.07086 2.9921265l0 0c14.3594055 15.498779 13.879974 39.287598 -1.0708618 53.13385z" fill-rule="evenodd"/><path fill="#6e6e6e" d="m376.9253 575.921l30.601562 -150.27509l-151.92044 18.74231l-7.1804657 12.386475l12.377884 13.88092l80.79993 16.513824l11.036835 81.11386l12.651154 13.14856z" fill-rule="evenodd"/></g></svg>